<svg xmlns="http://www.w3.org/2000/svg" width="28.599" height="34.003" viewBox="0 0 28.599 34.003"><defs><style>.a{fill:#333;}</style></defs><path class="a" d="M16.3,1a14.3,14.3,0,0,0-.753,28.584V35L17.7,33.964C25.421,30.246,30.6,22.75,30.6,15.3A14.312,14.312,0,0,0,16.3,1Zm2.258,29.051V26.589H16.3A11.289,11.289,0,1,1,27.589,15.3C27.589,20.914,24.036,26.6,18.557,30.051Zm-3.763-8.73H17.8v3.01h-3.01ZM16.3,5.516a6.019,6.019,0,0,0-6.021,6.021h3.01a3.01,3.01,0,0,1,6.021,0c0,3.01-4.516,2.634-4.516,7.526H17.8c0-3.387,4.516-3.763,4.516-7.526A6.019,6.019,0,0,0,16.3,5.516Z" transform="translate(-2 -1)"/></svg>