<svg xmlns="http://www.w3.org/2000/svg" width="36" height="36" viewBox="0 0 36 36"><defs><style>.a{fill:none;}.b{fill:#fff;}</style></defs><path class="a" d="M0,0H36V36H0Z"/><path class="b" d="M33,3H10.5A2.823,2.823,0,0,0,8.115,4.32L0,16.5,8.115,28.665A2.837,2.837,0,0,0,10.5,30H33a3.009,3.009,0,0,0,3-3V6A3.009,3.009,0,0,0,33,3Zm0,24H10.605L3.6,16.5,10.59,6H33ZM15.615,24,21,18.615,26.385,24,28.5,21.885,23.115,16.5,28.5,11.115,26.385,9,21,14.385,15.615,9,13.5,11.115,18.885,16.5,13.5,21.885Z" transform="translate(0 1.5)"/></svg>