<svg xmlns="http://www.w3.org/2000/svg" width="70.125" height="39.024" viewBox="0 0 70.125 39.024"><defs><style>.a{fill:none;}.b,.c{stroke:none;}.c{fill:#f2f2f2;}</style></defs><g class="a" transform="translate(-2171.999 7418.999)"><path class="b" d="M2183.375-7379.975a7,7,0,0,1-7-7v-3.217H2176a4,4,0,0,1-4-4v-11.614a4,4,0,0,1,4-4h.374V-7412a7,7,0,0,1,7-7h51.749a7,7,0,0,1,7,7v25.024a7,7,0,0,1-7,7Z"/><path class="c" d="M 2235.1240234375 -7382.97509765625 C 2237.330078125 -7382.97509765625 2239.124755859375 -7384.77001953125 2239.124755859375 -7386.97607421875 L 2239.124755859375 -7412 C 2239.124755859375 -7414.205078125 2237.330078125 -7415.9990234375 2235.1240234375 -7415.9990234375 L 2183.37548828125 -7415.9990234375 C 2181.16943359375 -7415.9990234375 2179.374755859375 -7414.205078125 2179.374755859375 -7412 L 2179.374755859375 -7406.806640625 L 2176.00048828125 -7406.806640625 C 2175.448486328125 -7406.806640625 2174.999267578125 -7406.3583984375 2174.999267578125 -7405.80712890625 L 2174.999267578125 -7394.19287109375 C 2174.999267578125 -7393.6416015625 2175.448486328125 -7393.193359375 2176.00048828125 -7393.193359375 L 2179.374755859375 -7393.193359375 L 2179.374755859375 -7386.97607421875 C 2179.374755859375 -7384.77001953125 2181.16943359375 -7382.97509765625 2183.37548828125 -7382.97509765625 L 2235.1240234375 -7382.97509765625 M 2235.1240234375 -7379.97509765625 L 2183.37548828125 -7379.97509765625 C 2179.50830078125 -7379.97509765625 2176.374755859375 -7383.1083984375 2176.374755859375 -7386.97607421875 L 2176.374755859375 -7390.193359375 L 2176.00048828125 -7390.193359375 C 2173.79052734375 -7390.193359375 2171.999267578125 -7391.984375 2171.999267578125 -7394.19287109375 L 2171.999267578125 -7405.80712890625 C 2171.999267578125 -7408.015625 2173.79052734375 -7409.806640625 2176.00048828125 -7409.806640625 L 2176.374755859375 -7409.806640625 L 2176.374755859375 -7412 C 2176.374755859375 -7415.865234375 2179.50830078125 -7418.9990234375 2183.37548828125 -7418.9990234375 L 2235.1240234375 -7418.9990234375 C 2238.989501953125 -7418.9990234375 2242.124755859375 -7415.865234375 2242.124755859375 -7412 L 2242.124755859375 -7386.97607421875 C 2242.124755859375 -7383.1083984375 2238.989501953125 -7379.97509765625 2235.1240234375 -7379.97509765625 Z"/></g></svg>