<svg xmlns="http://www.w3.org/2000/svg" width="44.521" height="80.001" viewBox="0 0 44.521 80.001"><defs><style>.a{fill:none;}.b,.c{stroke:none;}.c{fill:#333;}</style></defs><g class="a" transform="translate(44.521 0.001) rotate(90)"><path class="b" d="M11.991,44.521a7,7,0,0,1-7-7V32.864H4a4,4,0,0,1-4-4V14.488a4,4,0,0,1,4-4H4.99V7a7,7,0,0,1,7-7H73a7,7,0,0,1,7,7V37.521a7,7,0,0,1-7,7Z"/><path class="c" d="M 72.99990844726562 41.52120208740234 C 75.20562744140625 41.52120208740234 77.00010681152344 39.72672271728516 77.00010681152344 37.52099990844727 L 77.00010681152344 7.000201225280762 C 77.00010681152344 4.79448127746582 75.20562744140625 3.000000953674316 72.99990844726562 3.000000953674316 L 11.99070644378662 3.000000953674316 C 9.78498649597168 3.000000953674316 7.990506172180176 4.79448127746582 7.990506172180176 7.000201225280762 L 7.990506172180176 13.48769474029541 L 3.999599456787109 13.48769474029541 C 3.447919368743896 13.48769474029541 2.999106168746948 13.93652057647705 2.999106168746948 14.48820114135742 L 2.999106168746948 28.86480140686035 C 2.999106168746948 29.41598701477051 3.447919368743896 29.86440086364746 3.999599456787109 29.86440086364746 L 7.990506172180176 29.86440086364746 L 7.990506172180176 37.52099990844727 C 7.990506172180176 39.72672271728516 9.78498649597168 41.52120208740234 11.99070644378662 41.52120208740234 L 72.99990844726562 41.52120208740234 M 72.99990844726562 44.52120208740234 L 11.99070644378662 44.52120208740234 C 8.124305725097656 44.52120208740234 4.990506172180176 41.38740158081055 4.990506172180176 37.52099990844727 L 4.990506172180176 32.86440277099609 L 3.999599456787109 32.86440277099609 C 1.790106177330017 32.86440277099609 -0.0008938765386119485 31.07340049743652 -0.0008938765386119485 28.86480140686035 L -0.0008938765386119485 14.48820114135742 C -0.0008938765386119485 12.27869415283203 1.790106177330017 10.48769474029541 3.999599456787109 10.48769474029541 L 4.990506172180176 10.48769474029541 L 4.990506172180176 7.000201225280762 C 4.990506172180176 3.134707689285278 8.124305725097656 1.043701217895432e-06 11.99070644378662 1.043701217895432e-06 L 72.99990844726562 1.043701217895432e-06 C 76.86540222167969 1.043701217895432e-06 80.00010681152344 3.134707689285278 80.00010681152344 7.000201225280762 L 80.00010681152344 37.52099990844727 C 80.00010681152344 41.38740158081055 76.86540222167969 44.52120208740234 72.99990844726562 44.52120208740234 Z"/></g></svg>