<svg xmlns="http://www.w3.org/2000/svg" width="53.731" height="38.459" viewBox="0 0 53.731 38.459">
  <g id="BGB" transform="translate(0 3)">
    <ellipse id="Green_Fill" data-name="Green Fill" cx="26.865" cy="13.026" rx="26.865" ry="13.026" transform="translate(0 9.407)" fill="#050"/>
    <path id="Green_Outline" data-name="Green Outline" d="M26.865,2a50.191,50.191,0,0,0-10.055.983A34.4,34.4,0,0,0,8.741,5.615,16.218,16.218,0,0,0,3.618,9.27,5.744,5.744,0,0,0,2,13.026a5.744,5.744,0,0,0,1.618,3.755,16.218,16.218,0,0,0,5.123,3.655,34.4,34.4,0,0,0,8.069,2.632,50.191,50.191,0,0,0,10.055.983,50.191,50.191,0,0,0,10.055-.983,34.4,34.4,0,0,0,8.069-2.632,16.218,16.218,0,0,0,5.123-3.655,5.744,5.744,0,0,0,1.618-3.755A5.744,5.744,0,0,0,50.112,9.27,16.218,16.218,0,0,0,44.99,5.615a34.4,34.4,0,0,0-8.069-2.632A50.191,50.191,0,0,0,26.865,2m0-2C41.7,0,53.731,5.832,53.731,13.026S41.7,26.051,26.865,26.051,0,20.22,0,13.026,12.028,0,26.865,0Z" transform="translate(0 9.407)" fill="#af5"/>
    <circle id="Bunker" cx="8.655" cy="8.655" r="8.655" transform="translate(17.91 0)" fill="#ff0"/>
    <path id="Bunker_-_Рамка" data-name="Bunker - Рамка" d="M8.655,0A8.655,8.655,0,1,0,17.31,8.655,8.655,8.655,0,0,0,8.655,0m0-3A11.655,11.655,0,0,1,20.31,8.655,11.655,11.655,0,0,1,8.655,20.31,11.655,11.655,0,0,1-3,8.655,11.655,11.655,0,0,1,8.655-3Z" transform="translate(17.91 0)"/>
  </g>
</svg>
