<svg xmlns="http://www.w3.org/2000/svg" width="27.665" height="27.664" viewBox="0 0 27.665 27.664">
  <defs>
    <style>.a{fill:#fff;}</style>
  </defs>
  <g transform="translate(-66.495 108.354) rotate(-57)">
    <g transform="translate(113.024 5.888)">
      <path class="a"
            d="M123.023,5.888a10,10,0,1,0,10,10A10,10,0,0,0,123.023,5.888Zm0,17.641a7.646,7.646,0,1,1,7.648-7.648h0a7.65,7.65,0,0,1-7.648,7.645Z"
            transform="translate(-113.024 -5.888)"/>
      <path class="a"
            d="M119.548,12.406l4.15-2.918L122.69,8.05l-4.154,2.918a1.756,1.756,0,1,0,.857,2.33,1.8,1.8,0,0,0,.155-.891Z"
            transform="translate(-108.054 -2.233)"/>
      <path class="a"
            d="M117.658,12.631l2.175,4.58,1.587-.752-2.175-4.583a1.756,1.756,0,1,0-2.44.449,1.733,1.733,0,0,0,.853.307Z"
            transform="translate(-107.846 -0.61)"/>
    </g>
  </g>
</svg>
