<svg xmlns="http://www.w3.org/2000/svg" width="33.75" height="33.75" viewBox="0 0 33.75 33.75"><defs><style>.a{fill:#333;}</style></defs><path class="a" d="M33,6.75H29.25V3H10.5V6.75H6.75A3.761,3.761,0,0,0,3,10.5v1.875a9.359,9.359,0,0,0,8.231,9.263A9.393,9.393,0,0,0,18,27.188V33H10.5v3.75H29.25V33h-7.5V27.188a9.393,9.393,0,0,0,6.769-5.55,9.359,9.359,0,0,0,8.231-9.262V10.5A3.761,3.761,0,0,0,33,6.75ZM6.75,12.375V10.5H10.5v7.162A5.644,5.644,0,0,1,6.75,12.375Zm13.125,11.25A5.642,5.642,0,0,1,14.25,18V6.75H25.5V18A5.642,5.642,0,0,1,19.875,23.625ZM33,12.375a5.644,5.644,0,0,1-3.75,5.287V10.5H33Z" transform="translate(-3 -3)"/></svg>