<svg xmlns="http://www.w3.org/2000/svg" width="42.333" height="42.333" viewBox="0 0 42.333 42.333">
  <g id="CRK" transform="translate(0 0)">
    <path id="Creek_1" d="M1227.427,5509.907c3.867-1.763,7.408-3.06,6.685-6.48s-13.8-6.372-11.058-13.429,18.5-6.626,21.827-11.054,1.518-6.661-3.18-8.281c5.348-1.4,16.081,4.141,17.346,8.281,1.3,5.726-15.9,6.732-15.178,13.212,1.446,7.345,14.455,11.955,21.14,12.709C1253.555,5516.352,1235.486,5512.752,1227.427,5509.907Z" transform="translate(-1222.676 -5470.441)" fill="#0af"/>
    <g id="Creek_2" transform="translate(12.787 7.401)">
      <path id="Пересечение_15" data-name="Пересечение 15" d="M1.661,33.9c3.818-1.763,10.283-5.425,9.58-8.762C10.531,21.767-2.327,18.855.372,11.892S18.558,5.356,21.826.988Q22.21.475,22.5,0a4.276,4.276,0,0,1,.46.988C24.242,6.636,7.334,7.63,8.044,14.024,9.465,21.27,22.253,25.816,28.823,26.563c-5.92,5.958-13.639,7.8-20.778,7.8A45.974,45.974,0,0,1,1.661,33.9Z" transform="translate(0 0)" fill="#05f"/>
    </g>
  </g>
</svg>
