<svg xmlns="http://www.w3.org/2000/svg" width="33" height="33" viewBox="0 0 33 33"><defs><style>.a{fill:none;}.b{fill:#333;}</style></defs><rect class="a" width="33" height="33"/><path class="b" d="M25.222,3H5.778A2.777,2.777,0,0,0,3,5.778V25.222A2.777,2.777,0,0,0,5.778,28H25.222A2.786,2.786,0,0,0,28,25.222V5.778A2.777,2.777,0,0,0,25.222,3Zm0,22.222H5.778V8.556H25.222Zm-7.639-8.333A2.083,2.083,0,1,1,15.5,14.806,2.081,2.081,0,0,1,17.583,16.889ZM15.5,11.333a8.952,8.952,0,0,0-8.333,5.556,9.028,9.028,0,0,0,16.667,0A8.952,8.952,0,0,0,15.5,11.333Zm0,9.028a3.472,3.472,0,1,1,3.472-3.472A3.473,3.473,0,0,1,15.5,20.361Z" transform="translate(1.167 1.167)"/></svg>