<svg xmlns="http://www.w3.org/2000/svg" width="30" height="29.944" viewBox="0 0 30 29.944"><defs><style>.a{opacity:0.6;}.b{fill:#fff;}</style></defs><g transform="translate(-389 -647)"><path class="b" d="M19.653,48.219l.389-.1,8.712-2.434a1.6,1.6,0,0,0,.633-.341L44.621,30.065l.292-.195.195-.243,1.363-1.363a5.846,5.846,0,0,0,0-8.274h0a5.9,5.9,0,0,0-8.323,0L21.064,37.025a1.6,1.6,0,0,0-.341.633l-2.482,8.663a1.476,1.476,0,0,0,.389,1.46A1.326,1.326,0,0,0,19.653,48.219ZM44.377,22.035h0a2.923,2.923,0,0,1,.049,4.137l-.049.049-.535.535L39.656,22.57l.584-.535A2.968,2.968,0,0,1,44.377,22.035ZM23.4,38.826,37.612,24.663,41.749,28.8,27.586,43.012l-5.792,1.606Z" transform="translate(370.814 628.725)"/></g></svg>