<svg xmlns="http://www.w3.org/2000/svg" width="53" height="35.116" viewBox="0 0 53 35.116">
  <g id="FGB" transform="translate(0.07 0.061)">
    <ellipse id="Green_Fill" data-name="Green Fill" cx="26.5" cy="12.5" rx="26.5" ry="12.5" transform="translate(-0.07 -0.061)" fill="#050"/>
    <path id="Эллипс_287" data-name="Эллипс 287" d="M26.5,2a50.868,50.868,0,0,0-9.924.944A34.607,34.607,0,0,0,8.615,5.47C4.411,7.453,2,10.015,2,12.5s2.411,5.047,6.615,7.03a34.607,34.607,0,0,0,7.961,2.526A50.868,50.868,0,0,0,26.5,23a50.868,50.868,0,0,0,9.924-.944,34.607,34.607,0,0,0,7.961-2.526C48.589,17.547,51,14.985,51,12.5s-2.411-5.047-6.615-7.03a34.607,34.607,0,0,0-7.961-2.526A50.868,50.868,0,0,0,26.5,2m0-2C41.136,0,53,5.6,53,12.5S41.136,25,26.5,25,0,19.4,0,12.5,11.864,0,26.5,0Z" transform="translate(-0.07 -0.061)" fill="#af5"/>
    <circle id="Эллипс_288" data-name="Эллипс 288" cx="8.655" cy="8.655" r="8.655" transform="translate(17.468 14.744)" fill="#ff0"/>
    <path id="Эллипс_288_-_Рамка" data-name="Эллипс 288 - Рамка" d="M8.655,0A8.655,8.655,0,1,0,17.31,8.655,8.655,8.655,0,0,0,8.655,0m0-3A11.655,11.655,0,0,1,20.31,8.655,11.655,11.655,0,0,1,8.655,20.31,11.655,11.655,0,0,1-3,8.655,11.655,11.655,0,0,1,8.655-3Z" transform="translate(17.468 14.744)"/>
  </g>
</svg>
