<svg xmlns="http://www.w3.org/2000/svg" width="29.664" height="33.462" viewBox="0 0 29.664 33.462">
  <defs>
    <style>.a{fill:#fff;stroke:#707070;}</style>
  </defs>
  <g transform="translate(-389.216 -567.318)">
    <g transform="translate(389.716 567.818)">
      <path class="a"
            d="M13.076,283.063,24,279.02a.956.956,0,0,0,0-1.793l-10.925-4.046a.957.957,0,0,0-1.289.9v8.086A.958.958,0,0,0,13.076,283.063Z"
            transform="translate(3.717 -272.597)"/>
      <path class="a"
            d="M21.853,278.894v7.25c0,1.631-1.277,3.279-4.131,3.279H16.7c-2.857,0-4.134-1.648-4.134-3.279v-5.936c-3.746,1.4-6.212,3.738-6.212,6.392,0,4.294,6.418,7.772,14.332,7.772s14.332-3.478,14.332-7.772C35.013,282.529,29.212,279.222,21.853,278.894Z"
            transform="translate(-6.349 -261.91)"/>
      <path class="a"
            d="M10.811,297.6h1.026c.641,0,1.28-.174,1.28-.428V274.733a1.795,1.795,0,1,0-3.589,0v22.438C9.528,297.382,10.041,297.6,10.811,297.6Z"
            transform="translate(-0.465 -272.937)"/>
    </g>
  </g>
</svg>
