<svg xmlns="http://www.w3.org/2000/svg" width="24.593" height="45.759" viewBox="0 0 24.593 45.759"><defs><style>.a{fill:#fff;}</style></defs><path class="a" d="M-217.734,178.358a1.576,1.576,0,0,0-.129,2.229l.031.035a2.593,2.593,0,0,1,2.317-2.138A1.573,1.573,0,0,0-217.734,178.358Z" transform="translate(227.236 -165.642)"/><path class="a" d="M-216.634,177.333a1.575,1.575,0,0,0-.129,2.225l.034.038a2.583,2.583,0,0,1,2.32-2.141A1.577,1.577,0,0,0-216.634,177.333Z" transform="translate(229.591 -167.84)"/><path class="a" d="M-215.539,176.3a1.587,1.587,0,0,0-.122,2.229l.035.035a2.574,2.574,0,0,1,2.316-2.134A1.579,1.579,0,0,0-215.539,176.3Z" transform="translate(231.949 -170.038)"/><path class="a" d="M-218.839,179.388a1.575,1.575,0,0,0-.122,2.226l.034.038a2.574,2.574,0,0,1,2.313-2.138A1.572,1.572,0,0,0-218.839,179.388Z" transform="translate(224.882 -163.446)"/><path class="a" d="M-219.046,180.41a2.58,2.58,0,0,1,2.316-2.141,1.575,1.575,0,0,0-2.225-.122,1.566,1.566,0,0,0-.129,2.222Z" transform="translate(224.621 -166.1)"/><path class="a" d="M-217.947,179.38a2.577,2.577,0,0,1,2.317-2.138,1.584,1.584,0,0,0-2.229-.126,1.584,1.584,0,0,0-.129,2.229C-217.968,179.355-217.962,179.367-217.947,179.38Z" transform="translate(226.977 -168.296)"/><path class="a" d="M-216.849,178.356a2.577,2.577,0,0,1,2.317-2.141,1.576,1.576,0,0,0-2.229-.122,1.58,1.58,0,0,0-.119,2.226Z" transform="translate(229.335 -170.496)"/><path class="a" d="M-219.17,179.17a2.583,2.583,0,0,1,2.316-2.141,1.581,1.581,0,0,0-2.229-.126,1.584,1.584,0,0,0-.126,2.226A.439.439,0,0,0-219.17,179.17Z" transform="translate(224.365 -168.755)"/><path class="a" d="M-218.069,178.139A2.58,2.58,0,0,1-215.756,176a1.575,1.575,0,0,0-2.226-.122,1.574,1.574,0,0,0-.119,2.225Z" transform="translate(226.72 -170.951)"/><path class="a" d="M-208.827,174.035a12.3,12.3,0,0,0-12.3,12.3,12.3,12.3,0,0,0,12.3,12.3,12.3,12.3,0,0,0,12.3-12.3A12.3,12.3,0,0,0-208.827,174.035Zm0,22.977a10.681,10.681,0,0,1-10.682-10.682,10.68,10.68,0,0,1,10.682-10.675,10.677,10.677,0,0,1,10.679,10.675A10.679,10.679,0,0,1-208.827,197.012Z" transform="translate(221.122 -174.035)"/><path class="a" d="M-212.348,182.276l-4.228-.022a1.765,1.765,0,0,0-1.761,1.764l.028.3c.979,5.6,1.774,11.3,2.36,16.928l.1.964h2.492l.1-.964c.581-5.6,1.375-11.3,2.364-16.938A1.781,1.781,0,0,0-212.348,182.276Zm-2.254,12.031c-.439-3.324-.948-6.639-1.516-9.9h3.026C-213.663,187.7-214.169,191.008-214.6,194.307Z" transform="translate(227.079 -156.455)"/></svg>