<svg xmlns="http://www.w3.org/2000/svg" width="32" height="22.751" viewBox="0 0 32 22.751"><defs><style>.a{fill:#fff;}</style></defs><path class="a" d="M26,20.179a8.72,8.72,0,0,0-4.72,1.488A6.033,6.033,0,0,1,18,22.783a5.5,5.5,0,0,1-3.28-1.116A8.434,8.434,0,0,0,10,20.179a8.582,8.582,0,0,0-4.72,1.488A5.988,5.988,0,0,1,2,22.783v3.627a8.72,8.72,0,0,0,4.72-1.488,5.378,5.378,0,0,1,6.56,0A8.434,8.434,0,0,0,18,26.411a8.582,8.582,0,0,0,4.72-1.488,5.378,5.378,0,0,1,6.56,0A8.479,8.479,0,0,0,34,26.411V22.783a5.5,5.5,0,0,1-3.28-1.116A8.568,8.568,0,0,0,26,20.179ZM30.72,5.148a8.229,8.229,0,0,0-9.44,0A6.033,6.033,0,0,1,18,6.264a5.5,5.5,0,0,1-3.28-1.116A8.582,8.582,0,0,0,10,3.66,8.434,8.434,0,0,0,5.28,5.148,5.844,5.844,0,0,1,2,6.264v3.59A8.72,8.72,0,0,0,6.72,8.366,5.844,5.844,0,0,1,10,7.25a5.578,5.578,0,0,1,3.28,1.116A8.434,8.434,0,0,0,18,9.855a8.582,8.582,0,0,0,4.72-1.488A6.033,6.033,0,0,1,26,7.25a5.5,5.5,0,0,1,3.28,1.116A8.479,8.479,0,0,0,34,9.855V6.227A5.736,5.736,0,0,1,30.72,5.148ZM26,11.9a8.72,8.72,0,0,0-4.72,1.488,5.377,5.377,0,0,1-6.56,0A8.434,8.434,0,0,0,10,11.9a8.582,8.582,0,0,0-4.72,1.488A5.5,5.5,0,0,1,2,14.505v3.627a8.72,8.72,0,0,0,4.72-1.488A6.033,6.033,0,0,1,10,15.528a5.616,5.616,0,0,1,3.28,1.116A8.434,8.434,0,0,0,18,18.133a8.582,8.582,0,0,0,4.72-1.488A6.033,6.033,0,0,1,26,15.528a5.5,5.5,0,0,1,3.28,1.116A8.478,8.478,0,0,0,34,18.133V14.505a5.5,5.5,0,0,1-3.28-1.116A8.568,8.568,0,0,0,26,11.9Z" transform="translate(-2 -3.66)"/></svg>