<svg xmlns="http://www.w3.org/2000/svg" width="29.583" height="29.583" viewBox="0 0 29.583 29.583"><defs><style>.a{fill:#333;}</style></defs><path class="a" d="M16.777,2A14.792,14.792,0,1,0,31.583,16.792,14.784,14.784,0,0,0,16.777,2Zm10.251,8.875H22.664a23.148,23.148,0,0,0-2.041-5.266A11.877,11.877,0,0,1,27.027,10.875ZM16.792,5.017a20.837,20.837,0,0,1,2.825,5.858h-5.65A20.837,20.837,0,0,1,16.792,5.017ZM5.343,19.75a11.57,11.57,0,0,1,0-5.917h5a24.429,24.429,0,0,0-.207,2.958,24.429,24.429,0,0,0,.207,2.958Zm1.213,2.958h4.364a23.148,23.148,0,0,0,2.041,5.266,11.814,11.814,0,0,1-6.4-5.266Zm4.364-11.833H6.556a11.814,11.814,0,0,1,6.4-5.266,23.148,23.148,0,0,0-2.041,5.266Zm5.872,17.691a20.837,20.837,0,0,1-2.825-5.858h5.65A20.837,20.837,0,0,1,16.792,28.566Zm3.461-8.816H13.33a21.763,21.763,0,0,1-.237-2.958,21.574,21.574,0,0,1,.237-2.958h6.922a21.574,21.574,0,0,1,.237,2.958A21.763,21.763,0,0,1,20.253,19.75Zm.37,8.224a23.148,23.148,0,0,0,2.041-5.266h4.364A11.877,11.877,0,0,1,20.623,27.974Zm2.618-8.224a24.429,24.429,0,0,0,.207-2.958,24.429,24.429,0,0,0-.207-2.958h5a11.57,11.57,0,0,1,0,5.917Z" transform="translate(-2 -2)"/></svg>