<svg xmlns="http://www.w3.org/2000/svg" width="58" height="26" viewBox="0 0 58 26">
  <g id="LGB" transform="translate(3 0.016)">
    <ellipse id="Green_Fill" data-name="Green Fill" cx="26.5" cy="13" rx="26.5" ry="13" transform="translate(2 -0.016)" fill="#050"/>
    <path id="Эллипс_289" data-name="Эллипс 289" d="M26.5,2a48.9,48.9,0,0,0-9.909.98A33.609,33.609,0,0,0,8.643,5.6,15.98,15.98,0,0,0,3.6,9.246,5.775,5.775,0,0,0,2,13a5.775,5.775,0,0,0,1.6,3.754A15.98,15.98,0,0,0,8.643,20.4a33.609,33.609,0,0,0,7.949,2.623A48.9,48.9,0,0,0,26.5,24a48.9,48.9,0,0,0,9.909-.98A33.609,33.609,0,0,0,44.357,20.4,15.98,15.98,0,0,0,49.4,16.754,5.775,5.775,0,0,0,51,13a5.775,5.775,0,0,0-1.6-3.754A15.98,15.98,0,0,0,44.357,5.6,33.609,33.609,0,0,0,36.409,2.98,48.9,48.9,0,0,0,26.5,2m0-2C41.136,0,53,5.82,53,13S41.136,26,26.5,26,0,20.18,0,13,11.864,0,26.5,0Z" transform="translate(2 -0.016)" fill="#af5"/>
    <circle id="Эллипс_290" data-name="Эллипс 290" cx="8.655" cy="8.655" r="8.655" transform="translate(0 5.343)" fill="#ff0"/>
    <path id="Эллипс_290_-_Рамка" data-name="Эллипс 290 - Рамка" d="M8.655,0A8.655,8.655,0,1,0,17.31,8.655,8.655,8.655,0,0,0,8.655,0m0-3A11.655,11.655,0,0,1,20.31,8.655,11.655,11.655,0,0,1,8.655,20.31,11.655,11.655,0,0,1-3,8.655,11.655,11.655,0,0,1,8.655-3Z" transform="translate(0 5.343)"/>
  </g>
</svg>
