<svg xmlns="http://www.w3.org/2000/svg" width="58.372" height="26" viewBox="0 0 58.372 26">
  <g id="LGW" transform="translate(3 0.016)">
    <ellipse id="Green_Fill" data-name="Green Fill" cx="27" cy="13" rx="27" ry="13" transform="translate(1.372 -0.016)" fill="#050"/>
    <path id="Эллипс_289" data-name="Эллипс 289" d="M27,2a50.807,50.807,0,0,0-10.111.981A34.758,34.758,0,0,0,8.776,5.61,16.3,16.3,0,0,0,3.624,9.26,5.7,5.7,0,0,0,2,13a5.7,5.7,0,0,0,1.624,3.74,16.3,16.3,0,0,0,5.151,3.65,34.758,34.758,0,0,0,8.114,2.628A50.807,50.807,0,0,0,27,24a50.807,50.807,0,0,0,10.111-.981,34.758,34.758,0,0,0,8.114-2.628,16.3,16.3,0,0,0,5.151-3.65A5.7,5.7,0,0,0,52,13a5.7,5.7,0,0,0-1.624-3.74,16.3,16.3,0,0,0-5.151-3.65,34.758,34.758,0,0,0-8.114-2.628A50.807,50.807,0,0,0,27,2m0-2C41.912,0,54,5.82,54,13S41.912,26,27,26,0,20.18,0,13,12.088,0,27,0Z" transform="translate(1.372 -0.016)" fill="#af5"/>
    <circle id="Эллипс_290" data-name="Эллипс 290" cx="8.655" cy="8.655" r="8.655" transform="translate(0 5.343)" fill="#0af"/>
    <path id="Эллипс_290_-_Рамка" data-name="Эллипс 290 - Рамка" d="M8.655,0A8.655,8.655,0,1,0,17.31,8.655,8.655,8.655,0,0,0,8.655,0m0-3A11.655,11.655,0,0,1,20.31,8.655,11.655,11.655,0,0,1,8.655,20.31,11.655,11.655,0,0,1-3,8.655,11.655,11.655,0,0,1,8.655-3Z" transform="translate(0 5.343)"/>
  </g>
</svg>
