<svg xmlns="http://www.w3.org/2000/svg" width="36" height="37.964" viewBox="0 0 36 37.964"><defs><style>.a{fill:#fff;}</style></defs><g transform="translate(-20.717 -224.923)"><path class="a" d="M24.239,224.923a3.524,3.524,0,1,0,3.526,3.522A3.523,3.523,0,0,0,24.239,224.923Z" transform="translate(0 0)"/><path class="a" d="M27.7,224.923a3.524,3.524,0,1,0,3.522,3.522A3.527,3.527,0,0,0,27.7,224.923Z" transform="translate(11.013 0)"/><path class="a" d="M31.162,231.97a3.524,3.524,0,1,0-3.522-3.526A3.525,3.525,0,0,0,31.162,231.97Z" transform="translate(22.03 0)"/><path class="a" d="M24.239,228.9a3.526,3.526,0,1,0,3.526,3.526A3.524,3.524,0,0,0,24.239,228.9Z" transform="translate(0 11.878)"/><circle class="a" cx="3.525" cy="3.525" r="3.525" transform="translate(35.191 240.781)"/><path class="a" d="M31.162,228.9a3.526,3.526,0,1,0,3.526,3.526A3.524,3.524,0,0,0,31.162,228.9Z" transform="translate(22.03 11.878)"/><path class="a" d="M24.239,232.681a3.524,3.524,0,1,0,3.526,3.526A3.521,3.521,0,0,0,24.239,232.681Z" transform="translate(0 23.159)"/><path class="a" d="M27.7,232.681a3.524,3.524,0,1,0,3.522,3.526A3.525,3.525,0,0,0,27.7,232.681Z" transform="translate(11.013 23.159)"/><path class="a" d="M31.162,232.681a3.524,3.524,0,1,0,3.526,3.526A3.521,3.521,0,0,0,31.162,232.681Z" transform="translate(22.03 23.159)"/></g></svg>