<svg xmlns="http://www.w3.org/2000/svg" width="50" height="50" viewBox="0 0 50 50"><defs><style>.a{opacity:0.7;}.b{fill:#fff;}</style></defs><g transform="translate(-162 -338)"><circle class="a" cx="25" cy="25" r="25" transform="translate(162 338)"/><g transform="translate(158.257 334.5)"><path class="b" d="M28.813,51.5Z" transform="translate(-0.257)"/><g transform="translate(-0.257)"><path class="b" d="M16.438,12.125H4.063A2.063,2.063,0,0,1,4.063,8H16.438a2.063,2.063,0,0,1,0,4.125Z" transform="translate(6 18.75)"/><path class="b" d="M25.438,12.125H13.063a2.063,2.063,0,0,1,0-4.125H25.438a2.063,2.063,0,1,1,0,4.125Z" transform="translate(22.125 18.75)"/></g><path class="b" d="M10.063,27.5A2.063,2.063,0,0,1,8,25.438V13.063a2.063,2.063,0,0,1,4.125,0V25.438A2.063,2.063,0,0,1,10.063,27.5Z" transform="translate(18.743 22.125)"/><path class="b" d="M10.063,18.5A2.063,2.063,0,0,1,8,16.438V4.063a2.063,2.063,0,0,1,4.125,0V16.438A2.063,2.063,0,0,1,10.063,18.5Z" transform="translate(18.743 6)"/></g></g></svg>