<svg xmlns="http://www.w3.org/2000/svg" width="80" height="80" viewBox="0 0 80 80">
  <defs>
    <style>.a,.d{fill:none;}.a{stroke:#009dff;stroke-width:2px;}.b{fill:#009dff;}.c{stroke:none;}</style>
  </defs>
  <g class="a">
    <circle class="c" cx="40" cy="40" r="40"/>
    <circle class="d" cx="40" cy="40" r="39"/>
  </g>
  <path class="b"
        d="M41.636,27.48h3.521a1.3,1.3,0,0,0,1.112-1.992l-5.883-9.5a1.3,1.3,0,0,0-2.224,0l-5.929,9.45a1.3,1.3,0,0,0,1.112,1.992h3.521v.093A14.772,14.772,0,1,1,20.651,12.518a14.562,14.562,0,0,1,10.006,2.64,1.339,1.339,0,0,0,1.946-.417l1.065-1.807a1.377,1.377,0,0,0-.371-1.807A20.385,20.385,0,0,0,22.087,7.7,19.577,19.577,0,1,0,41.636,27.48Z"
        transform="translate(17.515 12.722)"/>
</svg>
