<svg xmlns="http://www.w3.org/2000/svg" width="45.43" height="34.772" viewBox="0 0 45.43 34.772"><defs><style>.a{fill:#fff;}</style></defs><g transform="translate(-435 -287)"><g transform="translate(435 287)"><path class="a" d="M294.99,419.082h27.9a2.848,2.848,0,0,0,0-5.7h-27.9a2.8,2.8,0,0,0-2.846,2.846A2.856,2.856,0,0,0,294.99,419.082Z" transform="translate(-280.306 -410.477)"/><path class="a" d="M322.794,417.474h-27.8a2.848,2.848,0,0,0,0,5.7h27.9a2.794,2.794,0,0,0,2.846-2.846A2.876,2.876,0,0,0,322.794,417.474Z" transform="translate(-280.306 -401.565)"/><path class="a" d="M322.794,421.533h-27.8a2.846,2.846,0,0,0,0,5.692h27.9a2.794,2.794,0,0,0,2.846-2.846A2.875,2.875,0,0,0,322.794,421.533Z" transform="translate(-280.306 -392.716)"/><path class="a" d="M291.873,421.171c.1.092.283.092.569,0l1.139-1.52,4.271-5.314c.283-.378.191-.569,0-.665l-1.52-1.138a.456.456,0,0,0-.569.1l-4.08,4.935-1.326-1.52a.6.6,0,0,0-.572,0l-1.231,1.425a.594.594,0,0,0,0,.569Z" transform="translate(-288.291 -412.471)"/><path class="a" d="M292.382,425.531l1.139-1.517,4.271-5.314c.474-.286.382-.474.286-.76l-1.52-1.138a.456.456,0,0,0-.569.1l-4.08,4.936-1.612-1.425a.594.594,0,0,0-.569,0l-1.234,1.425a.594.594,0,0,0,0,.569l3.32,3.129C291.908,425.626,292.1,425.626,292.382,425.531Z" transform="translate(-288.422 -403.169)"/><path class="a" d="M296.493,420.71a.456.456,0,0,0-.569.1l-4.08,4.936-1.517-1.52a.594.594,0,0,0-.569,0l-1.234,1.425a.594.594,0,0,0,0,.569l3.32,3.132c.1.1.286.1.569,0l1.139-1.52,4.271-5.314c.378-.379.286-.569.191-.665Z" transform="translate(-288.356 -394.647)"/></g></g></svg>