<svg xmlns="http://www.w3.org/2000/svg" width="48.746" height="48.749" viewBox="0 0 48.746 48.749"><defs><style>.a{fill:#fff;}</style></defs><g transform="translate(-347.608 -410.001)"><path class="a" d="M396.109,435.888a4.78,4.78,0,0,0,.246-1.511,4.889,4.889,0,0,0-3.335-4.628l-4.3-1.434q-.276-.76-.62-1.489l2.027-4.057a4.878,4.878,0,0,0-6.544-6.541l-2.027,1.013-2.027,1.013c-.488-.233-.986-.439-1.5-.624l-.571-1.713-.86-2.583a5.286,5.286,0,0,0-2.828-2.948c-.1-.04-.184-.111-.286-.144-.138-.046-.292-.037-.433-.071a4.907,4.907,0,0,0-1.078-.172h0a4.85,4.85,0,0,0-1.078.172c-.141.034-.3.025-.436.071-.1.034-.184.1-.283.144a4.892,4.892,0,0,0-1.609,1.084,4.836,4.836,0,0,0-1.219,1.864l-.86,2.583-.574,1.713c-.507.184-1,.39-1.492.624l-2.03-1.013-2.024-1.013a4.875,4.875,0,0,0-6.544,6.541l2.027,4.057q-.346.728-.623,1.489l-4.3,1.434a4.89,4.89,0,0,0-3.332,4.628,4.777,4.777,0,0,0,.243,1.511l.009.021A4.886,4.886,0,0,0,350.94,439l4.3,1.434c.184.507.39,1.007.623,1.5l-2.027,4.053a4.879,4.879,0,0,0,6.544,6.541l2.027-1.013,2.024-1.01q.737.345,1.5.623l1.434,4.293a5.252,5.252,0,0,0,3.1,3.086l.006,0a4.915,4.915,0,0,0,.525.086,4.818,4.818,0,0,0,.989.16h0a4.851,4.851,0,0,0,.989-.16,4.914,4.914,0,0,0,.525-.086l.006,0a5.252,5.252,0,0,0,3.1-3.086l1.431-4.293q.765-.276,1.5-.623l2.024,1.01,2.03,1.013a4.876,4.876,0,0,0,6.544-6.541l-2.027-4.053c.23-.488.439-.989.623-1.5L393.019,439a4.891,4.891,0,0,0,3.083-3.089Zm-17.267,11.393a14.789,14.789,0,0,1-2.583,1.066,1.63,1.63,0,0,0-1.069,1.041l0,.009,0,.006-1.661,4.984a1.553,1.553,0,0,1-.78.869,1.3,1.3,0,0,1-1.523,0,1.553,1.553,0,0,1-.78-.869l-1.661-4.984-.006-.006,0-.009a1.617,1.617,0,0,0-1.069-1.041,14.892,14.892,0,0,1-2.583-1.066,1.742,1.742,0,0,0-1.489-.018l-4.708,2.352a1.625,1.625,0,0,1-2.18-2.18l2.355-4.711a1.627,1.627,0,0,0-.018-1.486,14.569,14.569,0,0,1-1.065-2.583,1.64,1.64,0,0,0-1.041-1.072l-5-1.664a1.616,1.616,0,0,1-1.115-1.542,1.571,1.571,0,0,1,.2-.611c.046-.111.04-.246.111-.341a1.614,1.614,0,0,1,.8-.59l3.335-1.115,1.652-.55h0l.015-.006a1.631,1.631,0,0,0,1.041-1.066,14.574,14.574,0,0,1,1.065-2.583,1.627,1.627,0,0,0,.018-1.486l0-.006-2.352-4.708a1.625,1.625,0,0,1,2.18-2.18l4.711,2.355a1.663,1.663,0,0,0,.5.114,1.583,1.583,0,0,0,.986-.135,14.506,14.506,0,0,1,2.579-1.062,1.63,1.63,0,0,0,1.069-1.041l.006-.012v0l1.664-4.987a1.611,1.611,0,0,1,1.542-1.112v0h0v0a1.614,1.614,0,0,1,1.541,1.112l1.661,4.987,0,0,0,.012a1.637,1.637,0,0,0,1.069,1.041,14.53,14.53,0,0,1,2.583,1.062,1.58,1.58,0,0,0,.986.135,1.684,1.684,0,0,0,.5-.114l4.711-2.355a1.623,1.623,0,0,1,2.177,2.18l-2.349,4.708,0,.006a1.627,1.627,0,0,0,.018,1.486,14.8,14.8,0,0,1,1.066,2.583,1.627,1.627,0,0,0,1.038,1.066l.015.006h0l1.649.55,3.335,1.115a1.609,1.609,0,0,1,.808.59c.071.1.061.23.107.341a1.523,1.523,0,0,1,.2.611,1.617,1.617,0,0,1-1.112,1.542l-5,1.664a1.633,1.633,0,0,0-1.041,1.072,14.8,14.8,0,0,1-1.066,2.583,1.627,1.627,0,0,0-.018,1.486l2.352,4.711a1.624,1.624,0,0,1-2.18,2.18l-4.708-2.352a1.592,1.592,0,0,0-.8-.157A1.625,1.625,0,0,0,378.841,447.281Z" transform="translate(0 0)"/><path class="a" d="M374.549,426.041c.006-.147.043-.286.043-.43v0h0a11.007,11.007,0,0,0-.212-2.085c-.058-.313-.157-.608-.242-.915-.074-.264-.117-.537-.212-.8l-.022-.064a1.192,1.192,0,0,0-.068-.1,11.392,11.392,0,0,0-6.685-6.664c-.049-.022-.086-.061-.138-.08-.255-.092-.525-.135-.786-.209-.31-.086-.608-.187-.927-.246a11.225,11.225,0,0,0-2.079-.212h-.006a11.258,11.258,0,0,0-2.082.212c-.316.058-.617.16-.924.246-.261.074-.531.117-.789.209-.052.018-.089.058-.138.08a11.4,11.4,0,0,0-6.682,6.664c-.018.037-.055.064-.068.1l-.025.064c-.092.258-.135.531-.212.8-.083.307-.184.6-.243.915a11.541,11.541,0,0,0-.212,2.085h0v0c0,.144.04.283.046.43a11.459,11.459,0,0,0,11.331,10.944h0a11.186,11.186,0,0,0,5.19-1.317A11.334,11.334,0,0,0,374.549,426.041Zm-13.668-8.178a7.181,7.181,0,0,1,2.3-.375l.037,0,.034,0a8.1,8.1,0,0,1,1.428.141,7.947,7.947,0,0,1,.872.233,8.476,8.476,0,0,1,5.644,6.277,8.16,8.16,0,0,1,.144,1.459l0,.012a8.125,8.125,0,0,1-16.251,0l0-.012a8.165,8.165,0,0,1,.144-1.459,7.953,7.953,0,0,1,.221-.835A8.04,8.04,0,0,1,360.88,417.864Z" transform="translate(8.764 8.766)"/></g></svg>