<svg xmlns="http://www.w3.org/2000/svg" xmlns:xlink="http://www.w3.org/1999/xlink" width="60.124" height="56.162" viewBox="0 0 60.124 56.162"><defs><style>.a,.b{fill:#fff;}.a{stroke:#707070;}.c,.e,.i{fill:none;}.c{stroke:#fff;stroke-width:4px;}.c,.e{stroke-linecap:round;}.d{clip-path:url(#a);}.e{stroke:#0e1d08;stroke-linejoin:round;stroke-width:3px;stroke-dasharray:18 8;}.f{fill:#0c1c07;}.g{fill:#0f1d09;}.h{stroke:none;}</style><clipPath id="a"><path class="a" d="M0,.469,24.139,0l.269,22.176-4.866-1L3.152,29.5Z" transform="translate(9.603 0) rotate(19)"/></clipPath></defs><g transform="matrix(0.966, -0.259, 0.259, 0.966, -1940.797, -858.108)"><ellipse class="b" cx="15.831" cy="16.227" rx="15.831" ry="16.227" transform="translate(1666.569 1360.624)"/><path class="c" d="M3.017,2.75l14.01,17.7" transform="translate(1650.214 1339.262)"/><line class="c" x2="11.546" y2="14.654" transform="translate(1665.193 1341.221)"/><line class="c" x2="6.31" y2="8.063" transform="translate(1655.51 1359.715)"/><g class="d" transform="translate(1656.843 1350.864)"><g class="e" transform="translate(15.695 11.104) rotate(11)"><circle class="h" cx="11.247" cy="11.247" r="11.247"/><circle class="i" cx="11.247" cy="11.247" r="9.747"/></g></g><circle class="f" cx="1.578" cy="1.578" r="1.578" transform="translate(1675.46 1384.732) rotate(10)"/><circle class="f" cx="1.578" cy="1.578" r="1.578" transform="translate(1680.942 1386.559) rotate(10)"/><circle class="f" cx="1.578" cy="1.578" r="1.578" transform="translate(1682.948 1380.17) rotate(10)"/><circle class="f" cx="1.578" cy="1.578" r="1.578" transform="translate(1686.417 1375.025) rotate(10)"/><circle class="f" cx="1.578" cy="1.578" r="1.578" transform="translate(1677.286 1379.488) rotate(10)"/><circle class="g" cx="1.187" cy="1.187" r="1.187" transform="translate(1685.665 1365.383) rotate(10)"/><circle class="g" cx="1.187" cy="1.187" r="1.187" transform="translate(1670.814 1376.192) rotate(10)"/><circle class="f" cx="1.578" cy="1.578" r="1.578" transform="translate(1686.424 1384.731) rotate(10)"/><circle class="f" cx="1.578" cy="1.578" r="1.578" transform="translate(1690.131 1381.077) rotate(10)"/><circle class="f" cx="1.578" cy="1.578" r="1.578" transform="translate(1691.958 1375.832) rotate(10)"/></g></svg>