<svg xmlns="http://www.w3.org/2000/svg" width="32" height="32" viewBox="0 0 32 32"><defs><style>.a{fill:none;}.b,.c{fill:#333;}.b{opacity:0.3;}</style></defs><path class="a" d="M0,0H32V32H0ZM0,0H32V32H0ZM0,0H32V32H0ZM0,0H32V32H0Z"/><path class="b" d="M14.94,16.667c.053,0,.107-.013.16-.013l-3.48-3.48c0,.053-.013.107-.013.16A3.335,3.335,0,0,0,14.94,16.667Zm1.347-6.387,1.707,1.707A3.381,3.381,0,0,0,16.287,10.28ZM26.7,13.333A13.027,13.027,0,0,0,14.94,6a13.478,13.478,0,0,0-2.653.293L13.513,7.52a5.659,5.659,0,0,1,1.427-.187,6.009,6.009,0,0,1,6,6,6.338,6.338,0,0,1-.187,1.427l2.733,2.733A13.549,13.549,0,0,0,26.7,13.333ZM14.94,20.667a12.9,12.9,0,0,0,3.667-.52L17.3,18.84a5.8,5.8,0,0,1-2.36.493,6.007,6.007,0,0,1-5.52-8.36L7.087,8.627A13.022,13.022,0,0,0,3.18,13.32,13.039,13.039,0,0,0,14.94,20.667Z" transform="translate(1.06 2)"/><path class="c" d="M15.667,7.183a13.027,13.027,0,0,1,11.76,7.333,12.862,12.862,0,0,1-3.213,4.16l1.88,1.88a15.736,15.736,0,0,0,4.24-6.04,15.778,15.778,0,0,0-19.52-9.24l2.2,2.2A13.477,13.477,0,0,1,15.667,7.183Zm3.04,5.987,2.76,2.76a6.239,6.239,0,0,0,.187-1.427,5.978,5.978,0,0,0-5.987-5.987A6.338,6.338,0,0,0,14.24,8.7L17,11.463A3.283,3.283,0,0,1,18.707,13.17ZM2.347,4.343,5.92,7.917A15.65,15.65,0,0,0,1,14.517a15.769,15.769,0,0,0,14.667,10,15.64,15.64,0,0,0,5.76-1.093l4.56,4.56,1.88-1.88L4.227,2.45Zm10,10,3.48,3.48a.669.669,0,0,1-.16.027,3.335,3.335,0,0,1-3.333-3.333C12.333,14.45,12.347,14.41,12.347,14.343ZM7.813,9.81l2.333,2.333a6.134,6.134,0,0,0-.48,2.373,6.007,6.007,0,0,0,8.36,5.52l1.307,1.307a13.91,13.91,0,0,1-3.667.507,13.027,13.027,0,0,1-11.76-7.333A13.2,13.2,0,0,1,7.813,9.81Z" transform="translate(0.333 0.817)"/></svg>