<svg xmlns="http://www.w3.org/2000/svg" width="32" height="32" viewBox="0 0 32 32"><defs><style>.a{fill:none;}.b,.c{fill:#333;}.b{opacity:0.3;}</style></defs><path class="a" d="M0,0H32V32H0Z"/><path class="b" d="M14.94,6A13.027,13.027,0,0,0,3.18,13.333a13.1,13.1,0,0,0,23.52,0A13.027,13.027,0,0,0,14.94,6Zm0,13.333a6,6,0,1,1,6-6A6.009,6.009,0,0,1,14.94,19.333Z" transform="translate(1.06 2)"/><path class="c" d="M15.667,4A15.769,15.769,0,0,0,1,14a15.756,15.756,0,0,0,29.333,0A15.769,15.769,0,0,0,15.667,4Zm0,17.333A13.027,13.027,0,0,1,3.907,14a13.1,13.1,0,0,1,23.52,0A13.027,13.027,0,0,1,15.667,21.333ZM15.667,8a6,6,0,1,0,6,6A6.009,6.009,0,0,0,15.667,8Zm0,9.333A3.333,3.333,0,1,1,19,14,3.335,3.335,0,0,1,15.667,17.333Z" transform="translate(0.333 1.333)"/></svg>