<svg xmlns="http://www.w3.org/2000/svg" width="34.545" height="25.208" viewBox="0 0 34.545 25.208"><defs><style>.a{fill:#333;}</style></defs><path class="a" d="M2.34,13.8a2.31,2.31,0,0,0,3.117.167,21.242,21.242,0,0,1,26.883-.017,2.357,2.357,0,1,0,2.983-3.65,25.979,25.979,0,0,0-32.817,0,2.352,2.352,0,0,0-.167,3.5ZM15.274,26.728l2.45,2.45a1.66,1.66,0,0,0,2.35,0l2.45-2.45a1.663,1.663,0,0,0-.383-2.65,7.135,7.135,0,0,0-6.517,0,1.687,1.687,0,0,0-.35,2.65ZM9.057,20.512a2.352,2.352,0,0,0,3.05.217,11.773,11.773,0,0,1,13.6,0,2.372,2.372,0,0,0,3.05-.217l.017-.017a2.323,2.323,0,0,0-.217-3.517,16.516,16.516,0,0,0-19.3,0,2.328,2.328,0,0,0-.2,3.533Z" transform="translate(-1.64 -4.458)"/></svg>