<svg xmlns="http://www.w3.org/2000/svg" width="52.743" height="55.719" viewBox="0 0 52.743 55.719"><defs><style>.a,.c,.d{fill:none;}.b{fill:#8a8a8e;}.c{stroke:#f2f2f2;}.c,.d{stroke-linecap:round;stroke-width:4px;}.d{stroke:#8a8a8e;}</style></defs><g transform="translate(0 -2.713)"><path class="a" d="M0,0H35.433V35.433H0ZM0,0H35.433V35.433H0Z" transform="translate(17.31 12.029)"/><path class="b" d="M2.654,17.317a3.47,3.47,0,0,0,4.511.23,31.968,31.968,0,0,1,38.911-.023,3.532,3.532,0,0,0,4.559-.207,3.154,3.154,0,0,0-.241-4.82A38.534,38.534,0,0,0,32.564,4.9,38.829,38.829,0,0,0,2.9,12.5a3.137,3.137,0,0,0-.241,4.82Zm18.72,17.812L24.92,38.5a2.49,2.49,0,0,0,3.4,0l3.546-3.374a2.231,2.231,0,0,0-.555-3.65,10.8,10.8,0,0,0-9.432,0,2.26,2.26,0,0,0-.507,3.65Zm-9-8.562a3.535,3.535,0,0,0,4.415.3,17.752,17.752,0,0,1,19.685,0,3.566,3.566,0,0,0,4.415-.3l.024-.023A3.1,3.1,0,0,0,40.6,21.7a24.9,24.9,0,0,0-27.935,0,3.108,3.108,0,0,0-.289,4.866Z" transform="translate(-1.64 7.929)"/><g transform="translate(2.799 55.33) rotate(-81)"><path class="c" d="M0,0V63.328" transform="translate(0 1.759) rotate(-56)"/><path class="d" d="M0,0V63.328" transform="translate(3.518) rotate(-56)"/></g></g></svg>